<mxfile host="app.diagrams.net" agent="Mozilla/5.0 (Windows NT 10.0; Win64; x64) AppleWebKit/537.36 (KHTML, like Gecko) Chrome/130.0.0.0 Safari/537.36" version="24.8.4">
  <diagram name="等效电路" id="qyUAMR9Gx85rMnfqyGuq">
    <mxGraphModel dx="954" dy="558" grid="1" gridSize="10" guides="1" tooltips="1" connect="1" arrows="1" fold="1" page="1" pageScale="1" pageWidth="827" pageHeight="1169" math="0" shadow="0">
      <root>
        <mxCell id="0" />
        <mxCell id="1" parent="0" />
        <mxCell id="NXIWG5uz2K2swiidzdYj-2" value="VCC" style="text;html=1;align=center;verticalAlign=middle;resizable=0;points=[];autosize=1;strokeColor=none;fillColor=none;" vertex="1" parent="1">
          <mxGeometry x="124.55445544554456" y="80" width="50" height="30" as="geometry" />
        </mxCell>
        <mxCell id="NXIWG5uz2K2swiidzdYj-3" value="GND" style="text;html=1;align=center;verticalAlign=middle;resizable=0;points=[];autosize=1;strokeColor=none;fillColor=none;" vertex="1" parent="1">
          <mxGeometry x="174.55445544554456" y="439.99532467532464" width="50" height="30" as="geometry" />
        </mxCell>
        <mxCell id="NXIWG5uz2K2swiidzdYj-24" value="" style="pointerEvents=1;verticalLabelPosition=bottom;shadow=0;dashed=0;align=center;html=1;verticalAlign=top;shape=mxgraph.electrical.resistors.resistor_2;" vertex="1" parent="1">
          <mxGeometry x="320" y="217.46" width="40" height="10" as="geometry" />
        </mxCell>
        <mxCell id="NXIWG5uz2K2swiidzdYj-44" style="rounded=0;orthogonalLoop=1;jettySize=auto;html=1;exitX=0;exitY=0.5;exitDx=0;exitDy=0;exitPerimeter=0;endArrow=none;endFill=0;" edge="1" parent="1">
          <mxGeometry relative="1" as="geometry">
            <mxPoint x="154" y="245" as="targetPoint" />
            <mxPoint x="324" y="245" as="sourcePoint" />
          </mxGeometry>
        </mxCell>
        <mxCell id="NXIWG5uz2K2swiidzdYj-25" value="" style="pointerEvents=1;verticalLabelPosition=bottom;shadow=0;dashed=0;align=center;html=1;verticalAlign=top;shape=mxgraph.electrical.resistors.resistor_2;" vertex="1" parent="1">
          <mxGeometry x="320" y="240" width="40" height="10" as="geometry" />
        </mxCell>
        <mxCell id="NXIWG5uz2K2swiidzdYj-26" value="" style="pointerEvents=1;verticalLabelPosition=bottom;shadow=0;dashed=0;align=center;html=1;verticalAlign=top;shape=mxgraph.electrical.resistors.resistor_2;" vertex="1" parent="1">
          <mxGeometry x="320" y="258" width="40" height="10" as="geometry" />
        </mxCell>
        <mxCell id="NXIWG5uz2K2swiidzdYj-6" style="edgeStyle=orthogonalEdgeStyle;rounded=0;orthogonalLoop=1;jettySize=auto;html=1;exitX=0;exitY=0.8;exitDx=0;exitDy=0;entryX=0;entryY=0.8;entryDx=0;entryDy=0;endArrow=none;endFill=0;" edge="1" parent="1">
          <mxGeometry relative="1" as="geometry">
            <mxPoint x="83.16599999999994" y="130.64999999999998" as="sourcePoint" />
            <mxPoint x="226.84196991127692" y="130.6493506493507" as="targetPoint" />
          </mxGeometry>
        </mxCell>
        <mxCell id="NXIWG5uz2K2swiidzdYj-11" style="edgeStyle=orthogonalEdgeStyle;rounded=0;orthogonalLoop=1;jettySize=auto;html=1;exitX=0;exitY=0.8;exitDx=0;exitDy=0;endArrow=oval;endFill=1;" edge="1" parent="1">
          <mxGeometry relative="1" as="geometry">
            <mxPoint x="153.96039603960395" y="113.76623376623377" as="targetPoint" />
            <mxPoint x="153.77266298058385" y="130.6493506493507" as="sourcePoint" />
          </mxGeometry>
        </mxCell>
        <mxCell id="NXIWG5uz2K2swiidzdYj-13" style="edgeStyle=orthogonalEdgeStyle;rounded=0;orthogonalLoop=1;jettySize=auto;html=1;exitX=1;exitY=0.8;exitDx=0;exitDy=0;endArrow=oval;endFill=1;" edge="1" parent="1">
          <mxGeometry relative="1" as="geometry">
            <mxPoint x="153.96039603960395" y="371.48051948051943" as="targetPoint" />
            <mxPoint x="153.77266298058385" y="353.7532467532467" as="sourcePoint" />
          </mxGeometry>
        </mxCell>
        <mxCell id="NXIWG5uz2K2swiidzdYj-21" value="A" style="text;html=1;align=center;verticalAlign=middle;resizable=0;points=[];autosize=1;strokeColor=none;fillColor=none;" vertex="1" parent="1">
          <mxGeometry x="420.0008910891089" y="350.00194805194803" width="30" height="30" as="geometry" />
        </mxCell>
        <mxCell id="NXIWG5uz2K2swiidzdYj-22" value="B" style="text;html=1;align=center;verticalAlign=middle;resizable=0;points=[];autosize=1;strokeColor=none;fillColor=none;" vertex="1" parent="1">
          <mxGeometry x="309.9971287128713" y="420.00194805194803" width="30" height="30" as="geometry" />
        </mxCell>
        <mxCell id="NXIWG5uz2K2swiidzdYj-23" value="C" style="text;html=1;align=center;verticalAlign=middle;resizable=0;points=[];autosize=1;strokeColor=none;fillColor=none;" vertex="1" parent="1">
          <mxGeometry x="279.999702970297" y="147.30194805194805" width="30" height="30" as="geometry" />
        </mxCell>
        <mxCell id="NXIWG5uz2K2swiidzdYj-31" style="edgeStyle=orthogonalEdgeStyle;rounded=0;orthogonalLoop=1;jettySize=auto;html=1;exitX=0;exitY=0.8;exitDx=0;exitDy=0;endArrow=none;endFill=0;" edge="1" parent="1" source="NXIWG5uz2K2swiidzdYj-30">
          <mxGeometry relative="1" as="geometry">
            <mxPoint x="84" y="130" as="targetPoint" />
          </mxGeometry>
        </mxCell>
        <mxCell id="NXIWG5uz2K2swiidzdYj-33" style="edgeStyle=orthogonalEdgeStyle;rounded=0;orthogonalLoop=1;jettySize=auto;html=1;exitX=1;exitY=0.8;exitDx=0;exitDy=0;entryX=0;entryY=0.8;entryDx=0;entryDy=0;endArrow=none;endFill=0;" edge="1" parent="1" source="NXIWG5uz2K2swiidzdYj-30" target="NXIWG5uz2K2swiidzdYj-32">
          <mxGeometry relative="1" as="geometry" />
        </mxCell>
        <mxCell id="NXIWG5uz2K2swiidzdYj-30" value="" style="html=1;shape=mxgraph.electrical.electro-mechanical.singleSwitch;aspect=fixed;elSwitchState=off;direction=south;" vertex="1" parent="1">
          <mxGeometry x="80" y="142.45999999999998" width="20" height="75" as="geometry" />
        </mxCell>
        <mxCell id="NXIWG5uz2K2swiidzdYj-32" value="" style="html=1;shape=mxgraph.electrical.electro-mechanical.singleSwitch;aspect=fixed;elSwitchState=off;direction=south;" vertex="1" parent="1">
          <mxGeometry x="80" y="264" width="20" height="75" as="geometry" />
        </mxCell>
        <mxCell id="NXIWG5uz2K2swiidzdYj-35" style="edgeStyle=orthogonalEdgeStyle;rounded=0;orthogonalLoop=1;jettySize=auto;html=1;exitX=1;exitY=0.8;exitDx=0;exitDy=0;entryX=0;entryY=0.5;entryDx=0;entryDy=0;entryPerimeter=0;endArrow=none;endFill=0;" edge="1" parent="1" source="NXIWG5uz2K2swiidzdYj-30" target="NXIWG5uz2K2swiidzdYj-24">
          <mxGeometry relative="1" as="geometry">
            <Array as="points">
              <mxPoint x="84" y="222" />
            </Array>
          </mxGeometry>
        </mxCell>
        <mxCell id="NXIWG5uz2K2swiidzdYj-40" style="edgeStyle=orthogonalEdgeStyle;rounded=0;orthogonalLoop=1;jettySize=auto;html=1;exitX=0;exitY=0.8;exitDx=0;exitDy=0;endArrow=none;endFill=0;" edge="1" parent="1" source="NXIWG5uz2K2swiidzdYj-39">
          <mxGeometry relative="1" as="geometry">
            <mxPoint x="154" y="130" as="targetPoint" />
          </mxGeometry>
        </mxCell>
        <mxCell id="NXIWG5uz2K2swiidzdYj-43" style="edgeStyle=orthogonalEdgeStyle;rounded=0;orthogonalLoop=1;jettySize=auto;html=1;exitX=1;exitY=0.8;exitDx=0;exitDy=0;entryX=0;entryY=0.8;entryDx=0;entryDy=0;endArrow=none;endFill=0;" edge="1" parent="1" source="NXIWG5uz2K2swiidzdYj-39" target="NXIWG5uz2K2swiidzdYj-41">
          <mxGeometry relative="1" as="geometry" />
        </mxCell>
        <mxCell id="NXIWG5uz2K2swiidzdYj-39" value="" style="html=1;shape=mxgraph.electrical.electro-mechanical.singleSwitch;aspect=fixed;elSwitchState=off;direction=south;" vertex="1" parent="1">
          <mxGeometry x="150.55" y="142.45999999999998" width="20" height="75" as="geometry" />
        </mxCell>
        <mxCell id="NXIWG5uz2K2swiidzdYj-41" value="" style="html=1;shape=mxgraph.electrical.electro-mechanical.singleSwitch;aspect=fixed;elSwitchState=off;direction=south;" vertex="1" parent="1">
          <mxGeometry x="150.55" y="264" width="20" height="75" as="geometry" />
        </mxCell>
        <mxCell id="NXIWG5uz2K2swiidzdYj-46" style="edgeStyle=orthogonalEdgeStyle;rounded=0;orthogonalLoop=1;jettySize=auto;html=1;exitX=0;exitY=0.8;exitDx=0;exitDy=0;endArrow=none;endFill=0;" edge="1" parent="1" source="NXIWG5uz2K2swiidzdYj-45">
          <mxGeometry relative="1" as="geometry">
            <mxPoint x="227" y="130" as="targetPoint" />
          </mxGeometry>
        </mxCell>
        <mxCell id="NXIWG5uz2K2swiidzdYj-48" style="edgeStyle=orthogonalEdgeStyle;rounded=0;orthogonalLoop=1;jettySize=auto;html=1;exitX=1;exitY=0.8;exitDx=0;exitDy=0;endArrow=none;endFill=0;entryX=0;entryY=0.8;entryDx=0;entryDy=0;" edge="1" parent="1" source="NXIWG5uz2K2swiidzdYj-45" target="NXIWG5uz2K2swiidzdYj-47">
          <mxGeometry relative="1" as="geometry">
            <mxPoint x="227" y="260" as="targetPoint" />
          </mxGeometry>
        </mxCell>
        <mxCell id="NXIWG5uz2K2swiidzdYj-45" value="" style="html=1;shape=mxgraph.electrical.electro-mechanical.singleSwitch;aspect=fixed;elSwitchState=off;direction=south;" vertex="1" parent="1">
          <mxGeometry x="223" y="142.45999999999998" width="20" height="75" as="geometry" />
        </mxCell>
        <mxCell id="NXIWG5uz2K2swiidzdYj-47" value="" style="html=1;shape=mxgraph.electrical.electro-mechanical.singleSwitch;aspect=fixed;elSwitchState=off;direction=south;" vertex="1" parent="1">
          <mxGeometry x="223" y="262" width="20" height="75" as="geometry" />
        </mxCell>
      </root>
    </mxGraphModel>
  </diagram>
</mxfile>
